# xmcd
#
# Track frame offsets: 
#        182
#        26637
#        42215
#        68475
#        80755
#        100940
#        113492
#        131702
#        149192
#
# Disc length: 2269 seconds
#
# Revision: 5
# Processed by: cddbd v1.5.2PL0 Copyright (c) Steve Scherf et al.
# Submitted via: ExactAudioCopy v0.99pb3
#
DISCID=7c08db09
DTITLE=Calvin Russell - Soldier
DYEAR=1992
DGENRE=Blues
TTITLE0=Soldier
TTITLE1=Stranger
TTITLE2=Characters
TTITLE3=I dreamed I saw
TTITLE4=Rats and roaches
TTITLE5=Down in Texas
TTITLE6=Shackles and chains
TTITLE7=This could be the day
TTITLE8=This is your world (Menphis mix)
EXTD=YEAR: 1992
EXTT0=
EXTT1=
EXTT2=
EXTT3=
EXTT4=
EXTT5=
EXTT6=
EXTT7=
EXTT8=
PLAYORDER=
